<svg width="1410" height="89" viewBox="0 0 1410 89" fill="none" xmlns="http://www.w3.org/2000/svg">
<path d="M869.312 2C591.081 2 312.876 3.16499 34.6511 3.25209C16.7495 3.25769 1.39972 17.7837 2.23744 35.6657V35.6657C2.4692 40.6129 6.81614 43.7588 8.27769 47.9586C9.1588 50.4904 10.7202 51.8342 11.5105 54.105C11.8485 55.0761 16.5315 56.4123 17.5508 57.8767C22.5078 64.9987 40.2956 71.1095 49.7087 73.3825C76.479 79.8467 106.179 77.4335 134.102 77.4335C162.835 77.4335 189.97 73.2658 218.155 69.96C224.479 69.2183 230.219 66.1185 236.531 66.1185C240.898 66.1185 243.154 63.604 247.251 63.604C256.637 63.604 265.415 62.3468 274.815 62.3468C282.248 62.3468 290.05 63.604 297.019 63.604C303.492 63.604 308.145 67.3757 313.863 67.3757C319.844 67.3757 327.312 75.5818 333.345 76.1763C336.723 76.5091 339.109 79.593 342.193 80.9258C345.14 82.199 350.307 83.7686 352.572 85.2562C357.497 88.4911 374.065 86.2341 380.221 86.2341C391.529 86.2341 418.726 86.6262 429.774 84.9769C453.254 81.4719 460.727 76.9863 483.841 71.1474C506.165 65.5081 527.447 66.1185 550.795 66.1185C559.181 66.1185 584.841 70.9215 593.312 70.9215C596.146 70.9215 598.327 71.7099 600.541 72.3095C603.303 73.0573 605.947 73.4136 608.725 74.0969V74.0969C614.247 75.4555 620.545 77.3271 626.152 78.2746C629.075 78.7684 631.535 79.5004 635.103 81.3449C641.612 84.7097 674.953 82.6021 682.258 82.6021C706.892 82.6021 710.047 81.1126 734.299 78.9003C754.857 77.025 779.478 73.4201 797.424 65.001C803.147 62.3159 809.97 62.8632 816.225 62.4167C825.53 61.0277 836.518 62.3468 845.916 62.3468H875.097C879.725 62.3468 884.262 63.3941 888.283 64.8613C891.761 66.1304 896.604 65.2107 899.598 66.7471C905.013 69.5259 913.836 70.9634 918.314 74.6397C920.927 76.7845 924.459 75.7999 927.502 77.4335C931.578 79.6213 935.181 81.0282 939.753 82.183C948.588 84.4151 954.795 86.2341 964.765 86.2341H1018.36C1028.36 86.2341 1038.14 85.141 1048.14 84.9769C1053.88 84.8825 1059.57 82.6372 1065.32 82.4624C1072.86 82.2331 1082.55 80.9415 1089.48 78.4114C1096.43 75.8759 1101.91 74.8373 1108.62 71.776C1115.9 68.4575 1127.04 67.8466 1135.42 66.3979L1133.26 66.7471C1141.88 65.2566 1151.58 63.604 1160.69 63.604C1165.79 63.604 1172.23 66.5006 1177.62 67.3059C1212.6 72.5282 1249.59 74.9191 1287.02 74.9191C1318.9 74.9191 1357.11 70.7378 1379.25 52.5684C1383.11 49.3913 1390.17 44.4483 1394.9 42.2312C1400.05 39.8156 1399.73 32.4572 1402.64 29.5891C1407.53 24.7677 1408 17.9866 1408 12.0578C1408 4.84417 1401.64 7.0289 1394.22 7.0289C1329.54 7.0289 1264.33 9.30148 1199.4 8.28613C1189.92 8.13794 1180.9 5.77168 1171.41 5.77168H1148.52C1128.92 5.77168 1109.49 5.07149 1089.91 4.5843C1016.33 2.75372 942.999 2 869.312 2Z" fill="#DBEBF8" stroke="#DBEBF8" stroke-width="3" stroke-linecap="round"/>
</svg>
