<svg width="1410" height="89" viewBox="0 0 1410 89" fill="none" xmlns="http://www.w3.org/2000/svg">
<path d="M540.688 87C818.919 87 1097.12 85.835 1375.35 85.7479C1393.25 85.7423 1408.6 71.2163 1407.76 53.3343V53.3343C1407.53 48.3871 1403.18 45.2412 1401.72 41.0414C1400.84 38.5096 1399.28 37.1658 1398.49 34.895C1398.15 33.9239 1393.47 32.5877 1392.45 31.1233C1387.49 24.0013 1369.7 17.8905 1360.29 15.6175C1333.52 9.1533 1303.82 11.5665 1275.9 11.5665C1247.16 11.5665 1220.03 15.7342 1191.84 19.04C1185.52 19.7817 1179.78 22.8815 1173.47 22.8815C1169.1 22.8815 1166.85 25.396 1162.75 25.396C1153.36 25.396 1144.58 26.6532 1135.19 26.6532C1127.75 26.6532 1119.95 25.396 1112.98 25.396C1106.51 25.396 1101.85 21.6243 1096.14 21.6243C1090.16 21.6243 1082.69 13.4182 1076.65 12.8237C1073.28 12.4909 1070.89 9.40702 1067.81 8.07419C1064.86 6.80096 1059.69 5.2314 1057.43 3.74375C1052.5 0.50893 1035.93 2.76591 1029.78 2.76591C1018.47 2.76591 991.274 2.37383 980.226 4.02314C956.746 7.52805 949.273 12.0137 926.159 17.8526C903.835 23.4919 882.553 22.8815 859.205 22.8815C850.819 22.8815 825.159 18.0785 816.688 18.0785C813.854 18.0785 811.673 17.2901 809.459 16.6905C806.697 15.9427 804.053 15.5864 801.275 14.9031V14.9031C795.753 13.5445 789.455 11.6729 783.848 10.7254C780.925 10.2316 778.465 9.49961 774.897 7.65512C768.388 4.29031 735.047 6.39789 727.742 6.39789C703.108 6.39789 699.953 7.8874 675.701 10.0997C655.143 11.975 630.522 15.5799 612.576 23.999C606.853 26.6841 600.03 26.1368 593.775 26.5833C584.47 27.9723 573.482 26.6532 564.084 26.6532H534.903C530.275 26.6532 525.738 25.6059 521.717 24.1387C518.239 22.8696 513.396 23.7893 510.402 22.2529C504.987 19.4741 496.164 18.0366 491.686 14.3603C489.073 12.2155 485.541 13.2001 482.498 11.5665C478.422 9.3787 474.819 7.97179 470.247 6.81696C461.412 4.58494 455.205 2.76591 445.235 2.76591L391.639 2.76591C381.639 2.76591 371.861 3.85896 361.863 4.02314C356.117 4.11749 350.427 6.36277 344.678 6.53758C337.137 6.76687 327.451 8.0585 320.517 10.5886C313.568 13.1241 308.087 14.1627 301.375 17.224C294.1 20.5425 282.959 21.1534 274.577 22.6021L276.742 22.2529C268.122 23.7434 258.419 25.396 249.31 25.396C244.211 25.396 237.775 22.4994 232.38 21.6941C197.395 16.4718 160.409 14.0809 122.975 14.0809C91.1045 14.0809 52.8857 18.2622 30.7549 36.4316C26.8851 39.6087 19.827 44.5517 15.1013 46.7688C9.95224 49.1844 10.2708 56.5428 7.35961 59.4109C2.46578 64.2323 1.99997 71.0134 1.99997 76.9422C1.99997 84.1558 8.36069 81.9711 15.782 81.9711C80.4592 81.9711 145.673 79.6985 210.601 80.7139C220.077 80.8621 229.097 83.2283 238.591 83.2283H261.476C281.083 83.2283 300.509 83.9285 320.092 84.4157C393.671 86.2463 467.001 87 540.688 87Z" fill="#DBEBF8" stroke="#DBEBF8" stroke-width="3" stroke-linecap="round"/>
</svg>
